<svg xmlns="http://www.w3.org/2000/svg" width="85.682" height="85.682" viewBox="0 0 85.682 85.682">
  <g id="Group_3663" data-name="Group 3663" transform="translate(-68.192 -3.159)">
    <path id="Path_8342" data-name="Path 8342" d="M330.841,32a42.841,42.841,0,1,0,42.841,42.841A42.891,42.891,0,0,0,330.841,32Zm0,74.971a32.131,32.131,0,1,1,32.131-32.131A32.129,32.129,0,0,1,330.841,106.971Z" transform="translate(-219.808 -28.841)" fill="#00bd83"/>
    <path id="Path_8343" data-name="Path 8343" d="M325.7,38.57,308.066,56.2l-6.924-6.924a5.354,5.354,0,1,0-7.572,7.572l10.71,10.71a5.352,5.352,0,0,0,7.572,0l21.42-21.42A5.354,5.354,0,0,0,325.7,38.57Z" transform="translate(-202.388 -7.066)" fill="#00bd83"/>
  </g>
</svg>
