<svg xmlns="http://www.w3.org/2000/svg" width="15.754" height="15.048" viewBox="0 0 15.754 15.048">
  <path id="Path_3092" data-name="Path 3092" d="M239.688,294.312a1.964,1.964,0,0,0-1.617-1.332l-3.059-.4-1.327-2.762a1.977,1.977,0,0,0-3.556,0l-1.326,2.762-3.059.4a1.963,1.963,0,0,0-1.617,1.332,1.942,1.942,0,0,0,.518,2.021l2.239,2.1-.564,3.008a1.945,1.945,0,0,0,.779,1.937,1.98,1.98,0,0,0,2.1.135l2.71-1.461,2.711,1.461a1.98,1.98,0,0,0,2.1-.135,1.947,1.947,0,0,0,.779-1.937l-.565-3.008,2.24-2.1A1.942,1.942,0,0,0,239.688,294.312Zm-4.89,3.438.761,4.052-3.652-1.969-3.651,1.969.76-4.052L226,294.916l4.121-.535,1.786-3.721,1.787,3.721,4.121.535Z" transform="translate(-224.03 -288.707)" fill="#fff"/>
</svg>
