<svg id="Group_1820" data-name="Group 1820" xmlns="http://www.w3.org/2000/svg" width="16.003" height="16.004" viewBox="0 0 16.003 16.004">
  <path id="Path_3115" data-name="Path 3115" d="M103.126,269.935a6.011,6.011,0,0,1-5-7.233,6,6,0,0,1,11.8.44.991.991,0,0,0,.982.851,1.006,1.006,0,0,0,1-1.139,8,8,0,1,0-9.052,9.062,1,1,0,0,0,.271-1.981Z" transform="translate(-95.985 -255.992)" fill="#2e81fb"/>
  <path id="Path_3116" data-name="Path 3116" d="M107.987,263.993a1,1,0,0,0-1-1h-2v-2a1,1,0,0,0-2,0v3a1,1,0,0,0,1,1h3A1,1,0,0,0,107.987,263.993Z" transform="translate(-95.985 -255.992)" fill="#2e81fb"/>
  <path id="Path_3117" data-name="Path 3117" d="M110.988,267.994h-1v-1a1,1,0,0,0-2,0v1h-1a1,1,0,1,0,0,2h1v1a1,1,0,0,0,2,0v-1h1a1,1,0,0,0,0-2Z" transform="translate(-95.985 -255.992)" fill="#2e81fb"/>
</svg>
