<svg xmlns="http://www.w3.org/2000/svg" xmlns:xlink="http://www.w3.org/1999/xlink" width="308" height="313" viewBox="0 0 308 313">
  <defs>
    <clipPath id="clip-path">
      <rect id="Rectangle_2884" data-name="Rectangle 2884" width="308" height="313" rx="20" transform="translate(308 313) rotate(180)" fill="#feb401"/>
    </clipPath>
  </defs>
  <g id="Mask_Group_8" data-name="Mask Group 8" clip-path="url(#clip-path)">
    <g id="Group_3208" data-name="Group 3208" transform="translate(-19.68 -16.677)">
      <path id="Path_7227" data-name="Path 7227" d="M186.919,346.609l-13.579-173.4-13.579,173.4Zm-58.337,0,44.758-173.4L98.2,346.609ZM0,306.841l173.34-133.63L0,268.017Zm58.9,39.768,114.436-173.4L15.131,346.609ZM346.68,268.017,173.34,173.211l173.34,133.63Zm0-65.079L173.34,173.211l173.34,58.618Zm-98.2,143.67-75.139-173.4,44.757,173.4ZM0,231.829l173.34-58.618L0,202.939Zm331.549,114.78L173.34,173.211l114.436,173.4ZM130.3,0,173.34,173.211,158.193,0ZM346.68,80.437,173.34,173.211l173.34-60.376ZM346.68,0h-12.4L173.34,173.211,346.68,37.055ZM250.272,0,173.34,173.211,285.41,0ZM346.68,145.1,173.34,173.211l173.34-.786ZM0,172.425l173.34.786L0,145.1ZM188.487,0,173.34,173.211,216.377,0ZM0,0V37.056L173.34,173.211,12.4,0ZM0,112.835l173.34,60.376L0,80.437ZM61.27,0,173.34,173.211,96.408,0Z" fill="#205fc9" opacity="0.4" style="mix-blend-mode: overlay;isolation: isolate"/>
    </g>
  </g>
</svg>
