<svg xmlns="http://www.w3.org/2000/svg" width="16" height="16" viewBox="0 0 16 16"><defs><style>.a{fill:#fff;}</style></defs><g transform="translate(-1768.033 -277)"><path class="a" d="M655,711a1,1,0,0,0-1,1v6H642v-6a1,1,0,0,0-2,0v7a1,1,0,0,0,1,1h14a1,1,0,0,0,1-1v-7A1,1,0,0,0,655,711Z" transform="translate(2488.033 -363) rotate(90)"/><path class="a" d="M648.707,704.293a1,1,0,0,0-1.414,0l-3,3a1,1,0,0,0,1.414,1.414L647,707.414V715a1,1,0,0,0,2,0v-7.586l1.293,1.293a1,1,0,0,0,1.414-1.414Z" transform="translate(2488.033 -363) rotate(90)"/></g></svg>