<svg xmlns="http://www.w3.org/2000/svg" width="313" height="313" viewBox="0 0 313 313">
  <path id="Path_2989" data-name="Path 2989" d="M284.5,352C198.21,352,128,422.21,128,508.5a157.409,157.409,0,0,0,74.044,132.908l.254.215.156.078.137.1a156.2,156.2,0,0,0,164.11-.176C412.419,613.551,441,562.473,441,508.5,441,422.21,370.79,352,284.5,352Zm0,273.875a115.373,115.373,0,0,1-61.426-17.411,97.74,97.74,0,0,1,122.852,0A115.374,115.374,0,0,1,284.5,625.875ZM245.375,508.5A39.125,39.125,0,1,1,284.5,547.625,39.114,39.114,0,0,1,245.375,508.5Zm129.719,74.22a38.508,38.508,0,0,0-4.676-4.774,137.57,137.57,0,0,0-28.248-17,78.251,78.251,0,1,0-115.34,0,137.572,137.572,0,0,0-28.248,17,38.492,38.492,0,0,0-4.675,4.774,117.376,117.376,0,1,1,181.188,0Z" transform="translate(-128 -352)" fill="#1f2242" opacity="0.2"/>
</svg>
