<svg xmlns="http://www.w3.org/2000/svg" width="40" height="40" viewBox="0 0 40 40">
  <g id="Group_3666" data-name="Group 3666" transform="translate(-135 -594)">
    <rect id="Rectangle_1278" data-name="Rectangle 1278" width="40" height="40" rx="20" transform="translate(135 594)" fill="#4568b2"/>
    <g id="facebook-logo" transform="translate(200.394 603.861)">
      <path id="Path_211" data-name="Path 211" d="M32.691,0,30.046,0a4.646,4.646,0,0,0-4.893,5.02V7.335h-2.66a.416.416,0,0,0-.416.416v3.354a.416.416,0,0,0,.416.416h2.66v8.463a.416.416,0,0,0,.416.416h3.47a.416.416,0,0,0,.416-.416V11.521h3.11a.416.416,0,0,0,.416-.416V7.751a.416.416,0,0,0-.416-.416H29.455V5.373c0-.943.225-1.422,1.453-1.422h1.782a.416.416,0,0,0,.416-.416V.42A.416.416,0,0,0,32.691,0Z" transform="translate(-73)" fill="#fff"/>
    </g>
  </g>
</svg>
