<svg xmlns="http://www.w3.org/2000/svg" width="40" height="40" viewBox="0 0 40 40">
  <g id="Group_585" data-name="Group 585" transform="translate(-196 -594)">
    <g id="search" transform="translate(204.771 602.771)">
      <path id="Path_207" data-name="Path 207" d="M4.977,145.774,4.2,148.693l-2.857.06a11.248,11.248,0,0,1-.083-10.485h0l2.544.466,1.114,2.528a6.7,6.7,0,0,0,.063,4.512Z" transform="translate(0 -132.203)" fill="#fbbb00"/>
      <path id="Path_208" data-name="Path 208" d="M272.413,208.176a11.224,11.224,0,0,1-4,10.854h0l-3.2-.163-.453-2.831a6.692,6.692,0,0,0,2.879-3.417h-6v-4.442h10.785Z" transform="translate(-250.153 -199.045)" fill="#518ef8"/>
      <path id="Path_209" data-name="Path 209" d="M47.428,315.822h0a11.232,11.232,0,0,1-16.92-3.435l3.639-2.979a6.678,6.678,0,0,0,9.623,3.419Z" transform="translate(-29.171 -295.838)" fill="#28b446"/>
      <path id="Path_210" data-name="Path 210" d="M45.764,2.585,42.127,5.563a6.677,6.677,0,0,0-9.844,3.5L28.625,6.065h0a11.231,11.231,0,0,1,17.14-3.48Z" transform="translate(-27.369)" fill="#f14336"/>
    </g>
    <g id="Rectangle_1278" data-name="Rectangle 1278" transform="translate(196 594)" fill="none" stroke="#dfe3e9" stroke-width="1">
      <rect width="40" height="40" rx="20" stroke="none"/>
      <rect x="0.5" y="0.5" width="39" height="39" rx="19.5" fill="none"/>
    </g>
  </g>
</svg>
