<svg xmlns="http://www.w3.org/2000/svg" width="15.914" height="16" viewBox="0 0 15.914 16">
  <path id="Path_3083" data-name="Path 3083" d="M559.606,300.293a.991.991,0,0,0-1.407,0l-.288.29,0,0-1.87-1.88-.2-.2,1.005-1.01,1.77-1.78a1.012,1.012,0,0,0,0-1.42,1,1,0,0,0-1.412,0l-1.085,1.09-6.753-6.79a1.95,1.95,0,0,0-1.4-.59h-1.989a2,2,0,0,0-1.99,2v2a1.971,1.971,0,0,0,.587,1.41l6.754,6.79-1.085,1.09a1,1,0,0,0,1.413,1.42l1.77-1.78,1.005-1.01.2.2L556.5,302l-.288.29a1,1,0,0,0,0,1.414.99.99,0,0,0,1.406,0l.981-.986c.005-.005.012-.006.017-.011a.109.109,0,0,0,.011-.018l.981-.985A1,1,0,0,0,559.606,300.293ZM545.973,292v-2h1.989l6.753,6.79-1.989,2Z" transform="translate(-543.983 -288)" fill="#3285ff"/>
</svg>
