<svg xmlns="http://www.w3.org/2000/svg" width="16" height="14" viewBox="0 0 16 14">
  <g id="Group_3663" data-name="Group 3663" transform="translate(-1392.033 -448)">
    <path id="Path_2737" data-name="Path 2737" d="M654,513H642a2.006,2.006,0,0,0-2,2v8a2.006,2.006,0,0,0,2,2h5a1,1,0,0,0,0-2h-5v-4h14v-4A2.006,2.006,0,0,0,654,513Zm0,4H642v-2h12Z" transform="translate(752.033 -65)" fill="#fff"/>
    <path id="Path_2738" data-name="Path 2738" d="M655,523h-1v-1a1,1,0,0,0-2,0v1h-1a1,1,0,0,0,0,2h1v1a1,1,0,0,0,2,0v-1h1a1,1,0,0,0,1-1v-1a1.871,1.871,0,0,1-.09.59A1,1,0,0,0,655,523Z" transform="translate(752.033 -65)" fill="#fff"/>
    <path id="Path_2739" data-name="Path 2739" d="M646,520h-1a1,1,0,0,0,0,2h2a1,1,0,0,0,0-2Z" transform="translate(752.033 -65)" fill="#fff"/>
  </g>
</svg>
